HIERARCHY
ROOT Hips
{
	OFFSET 0.000000 0.000000 0.000000
	CHANNELS 6 Xposition Yposition Zposition Zrotation Yrotation Xrotation 
	JOINT LeftUpLeg_virtual
	{
		OFFSET 0.000000 0.000000 0.000000
		CHANNELS 3 Zrotation Yrotation Xrotation
		JOINT LeftUpLeg
		{
			OFFSET 10.205400 -3.823500 0.155100
			CHANNELS 3 Zrotation Yrotation Xrotation
			JOINT LeftLeg
			{
				OFFSET 0.708757 -12.982077 0.567790
				CHANNELS 3 Zrotation Yrotation Xrotation
				JOINT LeftFoot
				{
					OFFSET -0.708756 -10.717838 -2.184338
					CHANNELS 3 Zrotation Yrotation Xrotation
					JOINT LeftToeBase
					{
						OFFSET 0.108149 -7.191104 7.560241
						CHANNELS 3 Zrotation Yrotation Xrotation
						End Site
						{
							OFFSET 0.000000 0.000000 0.000000
						}
					}
				}
			}
		}
	}
	JOINT RightUpLeg_virtual
	{
		OFFSET 0.000000 0.000000 0.000000
		CHANNELS 3 Zrotation Yrotation Xrotation
		JOINT RightUpLeg
		{
			OFFSET -10.205400 -3.823500 0.005500
			CHANNELS 3 Zrotation Yrotation Xrotation
			JOINT RightLeg
			{
				OFFSET -0.708756 -12.982134 0.610632
				CHANNELS 3 Zrotation Yrotation Xrotation
				JOINT RightFoot
				{
					OFFSET 0.708754 -10.717769 -1.945823
					CHANNELS 3 Zrotation Yrotation Xrotation
					JOINT RightToeBase
					{
						OFFSET -0.108140 -7.191069 7.372968
						CHANNELS 3 Zrotation Yrotation Xrotation
						End Site
						{
							OFFSET 0.000000 0.000000 0.000000
						}
					}
				}
			}
		}
	}
	JOINT Spine_virtual
	{
		OFFSET 0.000000 0.000000 0.000000
		CHANNELS 3 Zrotation Yrotation Xrotation
		JOINT Spine
		{
			OFFSET 0.000000 6.876099 0.125700
			CHANNELS 3 Zrotation Yrotation Xrotation
			JOINT Spine1
			{
				OFFSET 0.000000 8.022060 0.146608
				CHANNELS 3 Zrotation Yrotation Xrotation
				JOINT Spine2
				{
					OFFSET 0.000000 9.168068 0.167552
					CHANNELS 3 Zrotation Yrotation Xrotation
					JOINT Neck_virtual
					{
						OFFSET 0.000000 0.000000 0.000000
						CHANNELS 3 Zrotation Yrotation Xrotation
						JOINT Neck
						{
							OFFSET 0.000000 10.314075 0.188496
							CHANNELS 3 Zrotation Yrotation Xrotation
							JOINT Head
							{
								OFFSET 0.000000 7.643700 -2.377400
								CHANNELS 3 Zrotation Yrotation Xrotation
								End Site
								{
									OFFSET 0.000000 0.000000 0.000000
								}
							}
						}
					}
					JOINT LeftShoulder_virtual
					{
						OFFSET 0.000000 0.000000 0.000000
						CHANNELS 3 Zrotation Yrotation Xrotation
						JOINT LeftShoulder
						{
							OFFSET 4.392200 8.824978 0.174984
							CHANNELS 3 Zrotation Yrotation Xrotation
							JOINT LeftArm
							{
								OFFSET 8.771219 -2.981674 -0.026999
								CHANNELS 3 Zrotation Yrotation Xrotation
								JOINT LeftForeArm
								{
									OFFSET 8.512804 0.000000 -0.000000
									CHANNELS 3 Zrotation Yrotation Xrotation
									JOINT LeftHand
									{
										OFFSET 18.484802 0.000000 -0.000000
										CHANNELS 3 Zrotation Yrotation Xrotation
										End Site
										{
											OFFSET 0.000000 0.000000 0.000000
										}
									}
								}
							}
						}
					}
					JOINT RightShoulder_virtual
					{
						OFFSET 0.000000 0.000000 0.000000
						CHANNELS 3 Zrotation Yrotation Xrotation
						JOINT RightShoulder
						{
							OFFSET -4.392200 8.824993 0.141379
							CHANNELS 3 Zrotation Yrotation Xrotation
							JOINT RightArm
							{
								OFFSET -8.771282 -2.981682 -0.094208
								CHANNELS 3 Zrotation Yrotation Xrotation
								JOINT RightForeArm
								{
									OFFSET -8.494598 0.000000 0.000000
									CHANNELS 3 Zrotation Yrotation Xrotation
									JOINT RightHand
									{
										OFFSET -18.483803 0.000000 0.000001
										CHANNELS 3 Zrotation Yrotation Xrotation
										End Site
										{
											OFFSET 0.000000 0.000000 0.000000
										}
									}
								}
							}
						}
					}
				}
			}
		}
	}
}
MOTION
Frames: 11
Frame Time: 0.033333
0.530740 1.053903 32.641956 179.863743 12.127579 179.849304 24.432300 -1.048423 -52.739777 -10.326455 15.583020 -116.035215 16.026431 -23.620266 120.584668 -27.882082 -9.642782 22.980849 0.000000 0.000000 0.000000 14.522317 10.795005 -50.752950 4.620953 1.491756 -111.346823 -21.875431 -8.136065 90.634172 3.810975 27.814267 38.700060 0.000000 0.000000 0.000000 10.417090 3.749694 -21.523196 -1.444892 -4.539762 -5.320387 -5.301109 -2.095949 19.565620 0.005411 0.034861 0.004067 -5.108810 -2.181495 23.124551 3.356230 -7.635343 21.178648 0.000000 0.000000 0.000000 -0.504173 -1.684279 16.214213 -7.462537 -5.603056 5.189642 -2.576899 7.995950 -14.261571 2.331709 -63.613042 8.675169 0.000000 0.000000 0.000000 -7.970568 0.258537 15.025593 15.266685 14.123398 -0.413174 72.671977 -39.738068 -3.575352 -22.822913 62.887628 -22.590304 0.000000 0.000000 0.000000 
0.539553 1.047350 32.670483 179.973026 11.971275 179.872048 24.388809 -1.340496 -53.053262 -10.409813 15.160372 -115.516121 16.706054 -24.138901 119.466511 -27.564004 -9.886994 23.295583 0.000000 0.000000 0.000000 14.444605 10.484125 -51.034504 3.651168 1.447535 -110.921405 -21.453168 -8.091808 90.077764 6.107162 28.513197 39.671200 0.000000 0.000000 0.000000 10.312541 3.643135 -21.861537 -1.296975 -4.507215 -5.667055 -5.316806 -2.037466 19.652751 0.034819 -0.006830 0.020117 -5.163094 -2.055787 23.136738 3.368037 -7.508602 21.499687 0.000000 0.000000 0.000000 -0.586282 -1.595932 16.159376 -8.058877 -4.942216 5.332399 -4.695420 10.073195 -14.438012 2.268014 -63.312022 8.796609 0.000000 0.000000 0.000000 -8.061701 0.315500 14.985010 15.908991 13.627250 -0.394719 71.498236 -39.971408 -3.398301 -23.653703 64.004719 -23.380460 0.000000 0.000000 0.000000 
0.527273 1.059703 32.733006 -179.872882 11.871201 -179.988722 24.403001 -1.650584 -53.217648 -10.838169 14.535655 -114.970798 17.933454 -24.171541 117.137362 -27.083382 -10.214220 23.527362 0.000000 0.000000 0.000000 14.406901 10.205126 -51.316338 2.771042 1.313948 -110.459848 -21.310426 -8.039337 89.541075 6.458699 28.238787 40.361862 0.000000 0.000000 0.000000 10.245250 3.456735 -22.171383 -1.112162 -4.382108 -6.034835 -5.324094 -1.988582 19.707258 -0.010762 -0.024892 -0.026034 -5.220371 -1.927445 23.236841 3.482377 -7.496448 21.791679 0.000000 0.000000 0.000000 -0.640052 -1.455971 16.206307 -8.667572 -4.162864 5.288388 -6.746687 11.981805 -14.387220 1.948734 -62.884459 9.210753 0.000000 0.000000 0.000000 -8.104338 0.416784 15.025149 16.560980 13.404464 -0.463078 70.002247 -39.760901 -2.926239 -24.361007 64.713734 -23.987804 0.000000 0.000000 0.000000 
0.477239 1.076073 32.790035 -179.879876 11.679813 179.974474 24.255897 -2.133557 -53.295549 -11.300000 13.898331 -114.348555 19.545032 -24.015445 114.096862 -26.740136 -10.645148 23.493001 0.000000 0.000000 0.000000 14.265419 9.756864 -51.589013 2.087824 1.182531 -110.008400 -21.404160 -8.012660 89.270108 5.562150 27.428141 40.411303 0.000000 0.000000 0.000000 10.025235 3.187898 -22.311600 -0.988107 -4.162672 -6.347122 -5.287952 -1.904364 19.775225 0.024080 -0.005261 -0.007211 -5.199356 -1.893478 23.231468 3.691956 -7.312197 22.102175 0.000000 0.000000 0.000000 -0.672336 -1.461345 16.184029 -9.400189 -3.510765 5.358562 -8.784701 13.618126 -14.182592 1.766689 -62.275022 9.509290 0.000000 0.000000 0.000000 -8.138159 0.418473 14.919512 17.236845 13.250989 -0.321474 68.096214 -39.029668 -2.127936 -24.636707 64.937996 -24.243961 0.000000 0.000000 0.000000 
0.428541 1.081803 32.850246 179.939011 11.399005 -179.997724 23.941321 -2.588199 -53.386890 -11.792430 13.282401 -113.685452 21.114065 -23.806498 110.983805 -26.470149 -11.188809 23.170956 0.000000 0.000000 0.000000 13.763663 9.303588 -51.720084 1.715410 1.043084 -109.685209 -21.660951 -8.170437 89.204791 3.065985 25.867012 39.563949 0.000000 0.000000 0.000000 9.665907 2.867402 -22.417953 -0.919599 -3.889976 -6.705127 -5.260172 -1.846553 19.703945 -0.022861 0.008625 -0.023714 -5.028962 -1.801072 23.202508 3.902938 -7.227484 22.352076 0.000000 0.000000 0.000000 -0.581159 -1.478071 16.141721 -10.238506 -2.837707 5.542878 -10.766437 15.135069 -13.765199 1.717335 -61.522096 9.726692 0.000000 0.000000 0.000000 -7.996308 0.454637 14.866556 17.904687 13.324515 -0.206056 65.812561 -37.995287 -0.967818 -24.317563 64.828829 -23.842479 0.000000 0.000000 0.000000 
0.383859 1.078784 32.907948 179.951798 11.169886 -179.975293 23.757082 -2.844013 -53.389133 -12.242675 12.641569 -112.765679 22.701594 -23.470333 107.656096 -26.143801 -11.705942 22.791890 0.000000 0.000000 0.000000 13.573358 8.986611 -52.097985 1.389924 0.984536 -109.255289 -22.088096 -8.246519 89.493865 1.041593 24.648814 38.579306 0.000000 0.000000 0.000000 9.453541 2.601392 -22.336505 -0.780526 -3.504531 -7.049790 -5.157555 -1.780241 19.594792 0.011814 0.050524 -0.035743 -5.044157 -1.904468 23.175938 4.148160 -6.784619 22.577378 0.000000 0.000000 0.000000 -0.565846 -1.475693 16.116899 -11.076741 -2.289108 5.654003 -12.684542 16.473083 -13.096952 1.671849 -60.592514 9.966639 0.000000 0.000000 0.000000 -7.961417 0.434952 14.792385 18.511819 13.498139 -0.033056 63.295575 -36.696656 0.453921 -23.891838 64.391834 -23.320081 0.000000 0.000000 0.000000 
0.354069 1.074717 32.949657 179.975184 10.626493 -179.883400 23.673548 -3.300562 -53.545152 -12.576716 12.068160 -111.783484 24.350394 -23.033413 103.984084 -25.788257 -12.175539 22.439632 0.000000 0.000000 0.000000 13.355707 8.416814 -52.261049 1.147844 0.997569 -109.194910 -22.210672 -8.250471 89.725647 -0.102097 23.917542 37.912427 0.000000 0.000000 0.000000 9.233144 2.231061 -22.334995 -0.650586 -3.184516 -7.416123 -5.074553 -1.822427 19.452968 -0.018865 0.007156 0.018532 -4.943430 -1.890534 23.007830 4.370977 -6.399120 22.802414 0.000000 0.000000 0.000000 -0.471507 -1.413568 15.908597 -11.933522 -1.723259 5.768876 -14.555037 17.794589 -12.200316 1.667262 -59.675957 10.184202 0.000000 0.000000 0.000000 -7.848675 0.469481 14.628716 19.036748 13.798623 0.182851 60.784954 -35.203994 1.658415 -23.137998 63.760847 -22.520341 0.000000 0.000000 0.000000 
0.351340 1.084550 32.982346 179.872390 10.126497 -179.964187 23.469992 -3.852265 -53.540931 -12.768588 11.566371 -110.570292 25.955142 -22.449315 100.076867 -25.366844 -12.586775 22.212807 0.000000 0.000000 0.000000 13.232759 7.867677 -52.302594 0.863516 1.137261 -109.211125 -22.370150 -8.211732 89.769723 -0.491360 23.591345 37.851621 0.000000 0.000000 0.000000 8.970291 1.800748 -22.235467 -0.562193 -2.753873 -7.638267 -5.012344 -1.795483 19.316924 -0.021975 -0.008278 0.020997 -4.847030 -1.910132 22.859482 4.554263 -5.963425 22.967199 0.000000 0.000000 0.000000 -0.378415 -1.440632 15.729140 -12.740295 -1.175649 5.793656 -16.322865 19.082799 -11.125599 1.647041 -58.769079 10.451633 0.000000 0.000000 0.000000 -7.700961 0.480822 14.468029 19.517873 14.074360 0.422113 58.521450 -33.699706 2.652274 -22.331720 63.019799 -21.522396 0.000000 0.000000 0.000000 
0.352892 1.100675 33.006157 179.873592 9.727220 179.999062 23.470118 -4.485090 -53.639361 -12.770665 11.280360 -109.229772 27.460414 -21.807520 96.077498 -24.916117 -12.893878 22.102735 0.000000 0.000000 0.000000 13.282780 7.192303 -52.131316 0.733672 1.451344 -109.294112 -22.320688 -8.379968 89.393441 -0.407374 23.548930 38.178073 0.000000 0.000000 0.000000 8.779715 1.350615 -22.128027 -0.425490 -2.237056 -7.833402 -4.932172 -1.738334 19.166291 -0.016107 0.006211 0.024815 -4.765336 -1.895743 22.746540 4.689056 -5.609894 23.066611 0.000000 0.000000 0.000000 -0.292123 -1.390000 15.619920 -13.489648 -0.914487 5.905853 -17.975069 20.393726 -9.957320 1.887436 -57.947421 10.466939 0.000000 0.000000 0.000000 -7.603748 0.429692 14.334830 19.917199 14.318178 0.690347 56.569105 -32.237598 3.445773 -21.580826 62.164844 -20.803187 0.000000 0.000000 0.000000 
0.376220 1.125883 32.989655 179.889752 9.468771 -179.944735 23.561152 -5.173130 -53.732029 -12.608369 11.125391 -108.005331 28.859407 -21.137096 92.329425 -24.479383 -13.226052 22.089143 0.000000 0.000000 0.000000 13.483119 6.497700 -51.853922 0.754389 1.928306 -109.499264 -22.176830 -8.759213 89.042745 -0.431874 23.536618 38.598256 0.000000 0.000000 0.000000 8.580044 0.929476 -22.077769 -0.251348 -1.746467 -8.019400 -4.870660 -1.716034 19.030618 -0.009989 0.002229 0.016271 -4.733846 -1.864209 22.676751 4.846393 -5.011341 23.062272 0.000000 0.000000 0.000000 -0.240022 -1.319538 15.521357 -14.098441 -0.602700 5.907233 -19.472627 21.516744 -8.938235 1.806087 -57.105835 10.789350 0.000000 0.000000 0.000000 -7.528378 0.475262 14.254127 20.261369 14.568549 0.950604 54.997168 -30.866468 3.930087 -20.867249 61.232496 -20.141740 0.000000 0.000000 0.000000 
0.408668 1.148350 32.941154 179.938629 9.172326 -179.857910 23.777902 -6.010225 -53.712915 -12.083757 11.222835 -106.908259 29.847438 -20.242275 89.132637 -24.076497 -13.560006 22.103221 0.000000 0.000000 0.000000 13.751249 5.626617 -51.544040 0.690984 2.394889 -109.789998 -22.291065 -9.360528 88.751505 -0.351311 23.781126 39.113857 0.000000 0.000000 0.000000 8.413628 0.260977 -21.971726 -0.052392 -1.248449 -8.236354 -4.808163 -1.679797 18.895003 -0.030353 0.003582 0.028542 -4.707289 -1.807909 22.575934 4.986376 -4.392764 22.947982 0.000000 0.000000 0.000000 -0.208512 -1.249188 15.416051 -14.632355 -0.406693 5.932444 -20.826504 22.473078 -7.880800 1.926068 -56.296502 10.913181 0.000000 0.000000 0.000000 -7.439333 0.598148 14.087144 20.458884 14.757134 1.254990 53.909242 -29.449064 3.832221 -20.087494 60.203589 -19.220048 0.000000 0.000000 0.000000 
